<?xml version="1.0" encoding="UTF-8"?>
<!DOCTYPE svg PUBLIC "-//W3C//DTD SVG 1.1//EN" "http://www.w3.org/Graphics/SVG/1.1/DTD/svg11.dtd">
<svg xmlns="http://www.w3.org/2000/svg" version="1.1" width="4500px" height="4500px" style="shape-rendering:geometricPrecision; text-rendering:geometricPrecision; image-rendering:optimizeQuality; fill-rule:evenodd; clip-rule:evenodd" xmlns:xlink="http://www.w3.org/1999/xlink">
<g><path style="opacity:0.998" fill="#3E2F5B" d="M 2257.5,526.5 C 2354.62,524.722 2451.62,527.222 2548.5,534C 2616.41,538.558 2683.41,548.891 2749.5,565C 2819.1,584.804 2883.76,614.804 2943.5,655C 3021.48,714.05 3074.98,790.55 3104,884.5C 3116.88,926.246 3124.88,968.913 3128,1012.5C 3134.71,1193.47 3136.05,1374.47 3132,1555.5C 3131.7,1580.51 3128.7,1605.18 3123,1629.5C 3108.39,1672.24 3078.55,1696.07 3033.5,1701C 2704.17,1701.33 2374.83,1701.67 2045.5,1702C 1998.27,1710.85 1969.44,1738.68 1959,1785.5C 1957.68,1893.48 1957.02,2001.48 1957,2109.5C 1948.28,2155.22 1921.12,2182.72 1875.5,2192C 1851.52,2196.26 1827.86,2194.93 1804.5,2188C 1681.81,2152.27 1588.98,2079.11 1526,1968.5C 1491.42,1903.52 1473.75,1834.18 1473,1760.5C 1472.67,1509.5 1472.33,1258.5 1472,1007.5C 1464.91,937.365 1472.91,869.032 1496,802.5C 1529.07,715.426 1588.57,653.926 1674.5,618C 1713.55,602.651 1753.55,590.318 1794.5,581C 1852.04,566.781 1910.04,554.781 1968.5,545C 2009.64,538.836 2050.97,534.503 2092.5,532C 2147.63,529.236 2202.63,527.403 2257.5,526.5 Z M 1834.5,784.5 C 1898.83,782.771 1947.66,809.104 1981,863.5C 2010.82,923.198 2006.49,980.198 1968,1034.5C 1923.19,1086.54 1867.36,1104.04 1800.5,1087C 1737.06,1064.22 1700.9,1019.39 1692,952.5C 1688.96,899.104 1707.46,854.938 1747.5,820C 1772.96,799.46 1801.96,787.626 1834.5,784.5 Z"/></g>
<g><path style="opacity:0.998" fill="#3E2F5B" d="M 3296.5,1410.5 C 3390.5,1410.33 3484.5,1410.5 3578.5,1411C 3629.73,1417.89 3662.89,1446.06 3678,1495.5C 3679.52,1501.75 3680.52,1508.09 3681,1514.5C 3681.33,1544.17 3681.67,1573.83 3682,1603.5C 3684.59,1635.62 3695.26,1664.62 3714,1690.5C 3729.12,1707.15 3747.62,1718.32 3769.5,1724C 3799.32,1731.8 3829.65,1734.8 3860.5,1733C 3903.35,1739.19 3933.51,1762.03 3951,1801.5C 3954.59,1810.52 3956.92,1819.85 3958,1829.5C 3958.67,1927.5 3958.67,2025.5 3958,2123.5C 3953.03,2158.29 3935.87,2185.13 3906.5,2204C 3890.84,2213.5 3873.84,2218.83 3855.5,2220C 3271.83,2220.67 2688.17,2220.67 2104.5,2220C 2065.17,2216.6 2035.34,2198.1 2015,2164.5C 2006.9,2149.86 2002.23,2134.19 2001,2117.5C 2000.02,2020.15 2000.36,1922.81 2002,1825.5C 2013.39,1772.44 2045.89,1741.61 2099.5,1733C 2421.83,1732.67 2744.17,1732.33 3066.5,1732C 3091.53,1729.49 3115.19,1722.49 3137.5,1711C 3159.37,1696.44 3174.54,1676.61 3183,1651.5C 3187.91,1637.19 3191.24,1622.53 3193,1607.5C 3193.06,1573.14 3193.72,1538.81 3195,1504.5C 3203.13,1463.04 3226.63,1434.21 3265.5,1418C 3275.7,1414.37 3286.04,1411.87 3296.5,1410.5 Z"/></g>
<g><path style="opacity:0.998" fill="#3E2F5B" d="M 716.5,1732.5 C 921.5,1732.33 1126.5,1732.5 1331.5,1733C 1387.41,1742.91 1420.91,1775.75 1432,1831.5C 1440.75,1880.93 1451.42,1929.93 1464,1978.5C 1470.82,1999.48 1479.82,2019.48 1491,2038.5C 1514.7,2079.21 1543.36,2116.21 1577,2149.5C 1581.38,2154.21 1585.38,2159.21 1589,2164.5C 1597.19,2180.64 1592.69,2191.81 1575.5,2198C 1559.26,2203.58 1542.6,2207.25 1525.5,2209C 1466.07,2216.44 1406.4,2220.28 1346.5,2220.5C 1132.17,2219.69 917.835,2219.19 703.5,2219C 648.997,2209.51 614.83,2178.01 601,2124.5C 599.229,2115.57 598.562,2106.57 599,2097.5C 615.004,2002.14 631.004,1906.81 647,1811.5C 658.771,1774.91 681.938,1748.58 716.5,1732.5 Z"/></g>
<g><path style="opacity:0.997" fill="#F28500" d="M 1331.5,2293.5 C 1400.82,2293.18 1469.82,2297.68 1538.5,2307C 1553.42,2308.98 1567.76,2312.98 1581.5,2319C 1588.75,2322.9 1592.75,2328.9 1593.5,2337C 1592.16,2343.86 1589.32,2350.02 1585,2355.5C 1539.43,2400.31 1502.43,2451.31 1474,2508.5C 1465.97,2528.29 1459.64,2548.62 1455,2569.5C 1446.82,2607.06 1439.15,2644.73 1432,2682.5C 1419.37,2743.13 1382.2,2776.29 1320.5,2782C 1119.83,2782.67 919.167,2782.67 718.5,2782C 677.957,2764.44 653.124,2733.94 644,2690.5C 629.158,2597.12 613.992,2503.78 598.5,2410.5C 602.651,2358.88 628.317,2322.71 675.5,2302C 684.902,2298.57 694.568,2296.23 704.5,2295C 913.667,2294.83 1122.67,2294.33 1331.5,2293.5 Z"/></g>
<g><path style="opacity:0.999" fill="#F28500" d="M 2097.5,2294.5 C 2528.5,2294.33 2959.5,2294.5 3390.5,2295C 3442.98,2304.48 3474.81,2335.31 3486,2387.5C 3487.65,2484.81 3487.98,2582.15 3487,2679.5C 3479.08,2736.42 3446.91,2770.26 3390.5,2781C 2959.5,2781.67 2528.5,2781.67 2097.5,2781C 2054.86,2773.61 2025.02,2750.11 2008,2710.5C 2004.09,2700.18 2001.75,2689.51 2001,2678.5C 2000.33,2584.83 2000.33,2491.17 2001,2397.5C 2005.66,2354.54 2027.16,2323.37 2065.5,2304C 2075.96,2299.68 2086.62,2296.51 2097.5,2294.5 Z"/></g>
<g><path style="opacity:0.998" fill="#F28500" d="M 1896.5,2309.5 C 1899.52,2309.34 1902.52,2309.5 1905.5,2310C 1903.83,2310.33 1902.17,2310.67 1900.5,2311C 1887.7,2311.5 1875.03,2312.83 1862.5,2315C 1914.61,2320.78 1946.11,2349.28 1957,2400.5C 1957.33,2505.83 1957.67,2611.17 1958,2716.5C 1962.73,2755.15 1982.57,2782.98 2017.5,2800C 2027.46,2804.07 2037.8,2806.74 2048.5,2808C 2377.83,2808.33 2707.17,2808.67 3036.5,2809C 3090.31,2817.81 3120.81,2849.31 3128,2903.5C 3131.7,2942.07 3133.7,2980.74 3134,3019.5C 3135.7,3182.9 3133.36,3346.23 3127,3509.5C 3119.88,3593.18 3094.22,3670.51 3050,3741.5C 3001.31,3815.19 2936.48,3869.69 2855.5,3905C 2802.71,3930.49 2747.38,3948.15 2689.5,3958C 2632.55,3967.95 2575.22,3974.62 2517.5,3978C 2391.21,3984.6 2264.87,3985.27 2138.5,3980C 2059.08,3977.51 1980.42,3968.51 1902.5,3953C 1846.41,3941.39 1790.74,3928.06 1735.5,3913C 1586.31,3873.15 1499.48,3776.98 1475,3624.5C 1469.2,3583.95 1468.2,3543.28 1472,3502.5C 1472.33,3251.5 1472.67,3000.5 1473,2749.5C 1476.65,2611.38 1530.82,2497.88 1635.5,2409C 1711.65,2347.94 1798.65,2314.78 1896.5,2309.5 Z M 2750.5,3439.5 C 2822.07,3438.35 2873.57,3469.68 2905,3533.5C 2928.19,3595.37 2918.85,3651.71 2877,3702.5C 2829.71,3750.28 2773.88,3764.11 2709.5,3744C 2648.32,3717.12 2614.49,3670.29 2608,3603.5C 2606.76,3539.79 2633.26,3491.62 2687.5,3459C 2707.35,3448.33 2728.35,3441.83 2750.5,3439.5 Z"/></g>
<g><path style="opacity:0.251" fill="#F28500" d="M 1955.5,2310.5 C 1955.56,2309.96 1955.89,2309.62 1956.5,2309.5C 1957.64,2311.42 1957.81,2313.42 1957,2315.5C 1956.8,2313.62 1956.3,2311.95 1955.5,2310.5 Z"/></g>
<g><path style="opacity:0.994" fill="#F28500" d="M 3721.5,2379.5 C 3776.62,2379.48 3820.79,2401.15 3854,2444.5C 3884.17,2490.21 3890.84,2539.21 3874,2591.5C 3846.91,2657.82 3797.41,2692.82 3725.5,2696.5C 3670.59,2693.64 3627.75,2669.64 3597,2624.5C 3569.16,2579.08 3563.82,2531.08 3581,2480.5C 3600.96,2431.88 3636.12,2400.04 3686.5,2385C 3698.16,2382.17 3709.83,2380.34 3721.5,2379.5 Z"/></g>
</svg>
